<?xml version="1.0" encoding="utf-8"?>
<!-- Generator: Adobe Illustrator 24.0.1, SVG Export Plug-In . SVG Version: 6.00 Build 0)  -->
<svg version="1.1" id="Layer_1" xmlns="http://www.w3.org/2000/svg" xmlns:xlink="http://www.w3.org/1999/xlink" x="0px" y="0px"
	 viewBox="0 0 700 700" style="enable-background:new 0 0 700 700;" xml:space="preserve">
<style type="text/css">
	.st0{fill:#FFFFFF;}
	.st1{fill:#020303;}
	.st2{fill:#E85510;}
</style>
<polygon class="st0" points="350,95.6 568.9,223.1 568,476.5 348.1,602.3 129.2,474.8 130.1,221.5 "/>
<g>
	<g>
		<path class="st1" d="M663.8,307.6c-2.8-7.1-7.1-12.7-12.2-18.3c-5.2-5.2-11.8-9.4-18.3-12.2c-7.1-3.3-14.1-4.2-22.1-4.2
			c-8,0-15,0.9-22.6,4.2c-6.6,2.8-12.2,7.1-17.9,12.2c-5.2,5.6-8.9,11.3-12.2,18.3c-3.3,7.1-4.7,14.6-4.7,22.1
			c0,7.5,1.4,15,4.7,22.6c3.3,6.6,7.1,12.2,12.2,17.9c5.6,5.2,11.3,9.4,17.9,12.2c7.5,2.8,14.6,4.7,22.6,4.7c8,0,15-1.9,22.1-4.7
			s13.2-7.1,18.3-12.2c5.2-5.6,9.4-11.3,12.2-17.9c2.8-7.5,4.2-15,4.2-22.6C668,322.2,666.6,314.7,663.8,307.6z M653.9,329.7
			c0,5.6-1.4,11.3-3.3,16.9c-1.9,4.7-5.6,9.4-8.9,13.2c-4.2,4.2-8.5,7.1-13.6,9.4c-5.6,1.9-11.3,3.3-16.9,3.3
			c-6.1,0-11.3-1.4-16.5-3.3c-5.6-2.4-9.9-5.2-13.6-9.4c-4.2-3.8-7.1-8.5-9.4-13.2c-2.4-5.6-3.3-11.3-3.3-16.9
			c0-5.6,0.9-11.3,3.3-16.9c2.4-4.7,5.2-9.4,9.4-13.2c3.8-3.8,8-7.1,13.6-9.4c5.2-2.4,10.3-3.3,16.5-3.3c5.6,0,11.3,0.9,16.9,3.3
			c5.2,2.4,9.4,5.6,13.6,9.4c3.3,3.8,7.1,8.5,8.9,13.2C652.5,318.4,653.9,324.1,653.9,329.7z"/>
		<path class="st1" d="M646.8,344.7c1.9-4.7,2.8-9.9,2.8-15c0-5.2-0.9-9.9-2.8-15c-2.4-4.2-4.7-8.9-8.5-12.2
			c-3.3-3.8-8-6.1-12.2-8.5c-5.2-1.4-9.9-2.8-15-2.8c-5.2,0-10.3,1.4-15,2.8c-4.7,2.4-8.5,4.7-12.2,8.5c-3.3,3.3-6.6,8-8,12.2
			c-2.4,5.2-3.3,9.9-3.3,15c0,5.2,1.4,10.3,3.3,15c1.4,4.2,4.7,8.9,8,12.2c3.8,3.8,7.5,6.6,12.2,8.5c4.7,1.9,9.9,2.8,15,2.8
			c5.2,0,9.9-0.9,15-2.8c4.2-1.9,8.9-4.7,12.2-8.5C642.1,353.7,644.5,349,646.8,344.7z M601.7,307.1c3.3-1.4,6.1-1.4,9.4-1.4
			c3.3,0,6.1,0,9.4,1.4c3.3,1.4,5.6,3.3,8,5.6c1.9,1.9,3.8,4.7,4.7,7.5c1.9,2.8,1.9,6.1,1.9,9.4c0,3.3,0,6.6-1.9,9.4
			c-0.9,2.8-2.8,5.6-4.7,7.5c-2.4,2.4-4.7,4.2-8,5.6c-3.3,1.4-6.1,1.9-9.4,1.9c-3.3,0-6.1-0.5-9.4-1.9c-3.3-1.4-5.6-3.3-8-5.6
			c-2.4-1.9-3.8-4.7-5.2-7.5c-0.9-2.8-1.9-6.1-1.9-9.4c0-3.3,0.9-6.6,1.9-9.4c1.4-2.8,2.8-5.6,5.2-7.5
			C596.1,310.4,598.4,308.5,601.7,307.1z"/>
		<path class="st1" d="M668,406.3v-14.6H560.8l-24.4-44.2c4.7-3.8,7.5-8.5,10.3-13.6c2.4-5.6,3.8-11.8,3.8-17.4
			c0-6.1-1.4-11.3-3.3-16.5c-1.9-5.2-5.2-9.4-8.9-13.2c-3.8-3.8-8.5-7.1-13.2-9.4c-5.2-2.4-10.8-3.3-16.9-3.3H487
			c-4.2,0-7.5,0.9-10.8,2.4c-2.8,0.9-5.6,3.3-8.5,5.6c-2.4,2.4-4.2,5.6-5.6,8.5c-1.4,3.3-1.9,6.6-1.9,10.3v84.1h14.1v-83.7
			c0-1.9,0.5-3.8,0.9-5.2c0.5-1.4,1.4-2.4,2.8-3.8c1.4-1.4,2.4-2.4,4.2-2.8c0.9-0.5,2.8-0.9,4.7-0.9l21.2-0.5
			c4.2,0,7.5,0.9,11.3,2.8c3.3,1.4,6.1,2.8,8.5,5.6c2.8,2.8,4.7,5.2,6.1,8.9c1.4,3.3,2.4,7.1,2.4,10.8c0,5.6-1.9,10.3-4.7,15
			c-2.8,4.7-6.6,8-11.3,10.3c-0.9,0-1.9,0.9-2.4,1.4c0,0.5,0,0.9,0.5,1.4l34.3,61.6H668z"/>
		<path class="st1" d="M525.1,299.6c-2.4-2.4-4.7-3.8-7.5-4.7c-2.8-1.4-6.1-2.4-9.4-2.4H487c-1.9,0-2.8,0.5-4.2,1.4
			c-0.5,0-1.9,0.9-2.8,1.9c-0.5,0.5-1.4,1.9-1.9,2.8c-0.5,1.4-0.5,2.4-0.5,3.8v82.7h14.1v-74.7c0-0.9,0.5-1.4,0.9-2.4
			c0.5-0.9,1.4-0.9,2.4-0.9l13.2-0.5c1.9,0,2.8,0.5,4.2,0.9c0.9,0.5,1.9,1.4,2.8,2.4c0.5,0.5,1.4,1.4,1.9,2.8
			c0.5,0.9,0.9,2.4,0.9,3.8c0,0.9-0.5,2.4-0.9,3.3c-0.5,1.4-1.4,2.4-1.9,3.3c-1.9,1.9-4.2,2.8-7.1,2.8H503c-3.3,0-5.6,1.9-7.1,4.7
			c-1.9,2.8-1.9,6.1,0,9.4l29.1,51.7H310.7c-0.5,0-0.9,0-1.9-0.5c0,0-0.5-0.9-0.9-1.4l-29.6-97.3c-0.5-2.4-1.9-4.7-3.8-7.1
			c-1.4-2.4-2.8-3.8-4.7-5.6c-2.4-1.4-4.7-2.8-7.1-3.8c-2.8-0.9-5.6-1.4-8.5-1.4c-2.4,0-5.6,0.5-8,1.4c-2.4,0.9-4.7,1.9-7.1,3.8
			c-2.4,1.4-3.8,3.3-5.6,5.6c-1.4,2.4-2.8,4.7-3.3,7.1l-29.6,97.3l-1.4,1.9h-1.9H39v14.6h162.6c2.4,0,4.7-0.5,7.1-2.4
			s3.3-3.3,3.8-6.1L244,296.3c0.5-2.4,1.4-4.2,3.8-5.6c1.9-1.4,4.2-2.4,6.6-2.4c2.8,0,4.7,0.9,6.6,2.4c1.9,1.4,3.3,3.3,4.2,5.6
			l30.6,101.5c2.4,5.6,6.1,8.5,10.8,8.5h242.6l-36.7-66.8c2.4,0,5.2-0.9,7.5-2.4c2.4-1.9,4.7-3.3,6.6-5.6c1.4-1.9,3.3-4.2,3.8-7.1
			c1.4-2.4,1.4-5.2,1.4-8c0-3.3,0-6.1-1.4-9.4C528.9,304.3,527,302,525.1,299.6z"/>
		<path class="st1" d="M354.5,274.2c-8,0-15,1.9-22.1,4.7c-6.1,2.8-12.2,6.6-17.4,11.8c-5.2,5.2-8.9,11.3-11.8,17.4
			c-2.8,7.1-4.2,14.1-4.2,21.6c0,7.5,1.4,14.6,4.2,21.6c2.8,6.6,6.6,12.2,11.8,17.4c5.2,5.2,11.3,8.9,17.4,11.8
			c7.1,2.8,14.1,4.7,22.1,4.7h34.3c-2.8-1.9-5.2-3.8-7.5-6.1c-1.9-2.8-3.8-5.2-5.2-8h-21.6c-6.1,0-11.3-0.9-16.5-3.3
			c-4.7-1.9-9.4-4.7-13.2-8.9c-3.8-3.8-6.6-8-8.9-13.2c-2.4-4.7-2.8-10.3-2.8-16c0-5.6,0.5-10.8,2.8-16c2.4-4.7,5.2-9.4,8.9-13.2
			c3.8-3.8,8.5-6.6,13.2-8.9c5.6-1.9,10.8-3.3,16.5-3.3h18.8v-14.1H354.5z"/>
		<path class="st1" d="M338,313.7c2.4-2.4,4.7-3.8,7.1-4.7c3.3-1.4,6.1-1.9,9.4-1.9h18.8v-14.6h-18.8c-5.6,0-10.3,0.9-15,2.8
			c-4.2,1.9-8.5,4.7-11.8,8c-3.3,3.3-6.1,7.5-7.5,11.8c-2.4,4.7-3.3,9.4-3.3,14.6c0,5.2,0.9,9.9,3.3,14.6c1.4,4.7,4.2,8.5,7.5,11.8
			c3.3,3.3,7.5,5.6,11.8,7.5c4.7,2.4,9.4,2.8,15,2.8h18.8v-13.6h-18.8c-3.3,0-6.1-0.5-9.4-1.9c-2.4-1.4-4.7-2.8-7.1-5.2
			c-2.4-1.9-3.8-4.2-4.7-7.1c-1.4-2.8-2.4-5.6-2.4-8.9c0-2.8,0.9-5.6,2.4-8.9C334.2,318.4,335.7,316.1,338,313.7z"/>
		<path class="st1" d="M452.7,307.1v-14.6h-47.9c-1.4,0-2.4,0.5-3.8,1.4c-0.9,0-1.9,0.9-2.8,1.9c-0.9,0.5-1.4,1.9-2.4,2.8
			c-0.5,1.4-0.5,2.4-0.5,3.8v25.4h40.4l4.2-11.8h-30.6v-5.6c0-0.9,0.5-1.4,0.9-2.4c0.5-0.9,1.9-0.9,2.4-0.9H452.7z"/>
		<path class="st1" d="M452.7,288.3v-14.1h-47.9c-3.8,0-7.1,0.9-10.3,2.4c-3.3,0.9-6.1,3.3-8.5,5.6s-4.7,5.6-5.6,8.5
			c-1.4,3.3-2.4,6.6-2.4,10.3v57.4c0,3.3,0.9,7.1,2.4,10.3c0.9,2.8,3.3,6.1,5.6,8.5s5.2,4.2,8.5,5.6c3.3,1.4,6.6,2.4,10.3,2.4h47.9
			v-14.1h-47.9c-1.9,0-3.3-0.5-5.2-0.9c-1.4-0.9-2.8-1.9-4.2-2.8c-0.9-1.4-1.9-2.8-2.4-4.2c-0.9-1.4-0.9-3.3-0.9-4.7v-56.9
			c0-1.9,0-3.8,0.9-5.2c0.5-1.4,1.4-2.4,2.4-3.8c1.4-1.4,2.8-2.4,4.2-2.8c1.9-0.5,3.3-0.9,5.2-0.9L452.7,288.3z"/>
		<path class="st1" d="M410.4,351.3c-0.9-0.5-0.9-0.9-0.9-2.4v-3.3h20.2l4.7-14.1h-39v25.9c0,1.4,0,2.4,0.5,3.8
			c0.9,0.9,1.4,1.9,2.4,2.8c0.9,0.9,1.9,1.4,2.8,1.9c1.4,0.5,2.4,0.5,3.8,0.5h47.9v-13.6h-40C411.8,352.7,410.9,352.3,410.4,351.3z"
			/>
		<path class="st1" d="M286.8,393.2h0.5h0.9l0.5-0.5v-0.5v-0.5h-0.5h-1.4c-4.2,0-8-0.9-11.8-2.4c-3.8-1.9-6.6-3.8-9.9-6.6
			c-2.8-2.4-5.2-5.2-7.1-8.9c-1.4-3.3-2.8-7.5-3.3-11.3v-0.5l-0.5-0.5c0,0-0.5,0-0.9,0.5c0,0,0,0,0,0.5c-0.5,3.8-1.4,8-3.3,11.3
			c-1.9,3.8-4.2,6.6-7.1,8.9c-2.8,2.8-6.1,4.7-9.9,6.6c-3.8,1.4-7.5,2.4-11.8,2.4h-0.9h-0.9v0.5v0.5c0.5,0.5,0.9,0.5,0.9,0.5h0.9
			c4.2,0,8,0.9,11.8,2.4c3.8,1.4,7.1,3.3,9.9,6.1c2.8,2.4,5.2,5.6,7.1,8.9c1.9,3.8,2.8,7.5,3.3,11.8v0.5c0,0,0.5,0,0.9,0l0,0
			l0.5-0.5c0.5-4.2,1.9-8,3.3-11.8c1.9-3.3,4.2-6.6,7.1-8.9c3.3-2.8,6.1-4.7,9.9-6.1C278.8,394.1,282.5,393.2,286.8,393.2z"/>
		<path class="st1" d="M156.6,274.2c-3.8,0-7.1,0.9-10.3,2.4c-3.3,0.9-6.1,3.3-8.5,5.6s-4.2,5.6-6.1,8.5c-0.9,3.3-1.9,6.6-1.9,10.3
			v57.4c0,3.3,0.9,7.1,1.9,10.3c1.9,2.8,3.8,6.1,6.1,8.5s5.2,4.2,8.5,5.6c3.3,1.4,6.6,2.4,10.3,2.4h36.7l4.7-14.1h-41.4
			c-1.9,0-3.3-0.5-4.7-0.9c-1.9-0.9-2.8-1.9-4.2-2.8c-1.4-1.4-2.4-2.8-2.8-4.2c-0.5-1.4-0.9-3.3-0.9-4.7v-56.9
			c0-1.9,0.5-3.8,0.9-5.2c0.5-1.4,1.4-2.4,2.8-3.8c1.4-1.4,2.4-2.4,4.2-2.8c1.4-0.5,2.8-0.9,4.7-0.9h52.6l4.2-14.6H156.6z"/>
		<path class="st1" d="M156.6,292.6c-1.4,0-2.4,0.5-3.8,1.4c-0.9,0-1.9,0.9-2.8,1.9c-0.9,0.5-1.9,1.9-1.9,2.8
			c-0.5,1.4-0.9,2.4-0.9,3.8v25.4h40.4l3.8-11.8h-29.6v-5.6c0-0.9,0-1.4,0.5-2.4c0.9-0.9,1.9-0.9,2.4-0.9h39l4.2-14.6H156.6z"/>
		<path class="st1" d="M111.9,290.7c-5.2-5.2-11.3-8.9-17.9-11.8c-7.1-2.8-14.1-4.7-21.6-4.7h-7.1c-3.3,0-7.1,0.9-9.9,2.4
			c-3.8,0.9-6.6,3.3-8.9,5.6s-4.2,5.6-5.6,8.5C39.5,294,39,297.3,39,301v84.1h33.4c7.5,0,14.6-1.9,21.6-4.7
			c6.6-2.8,12.7-6.6,17.9-11.8c4.7-5.2,8.9-10.8,11.8-17.4c2.8-7.1,4.2-14.1,4.2-21.6c0-7.5-1.4-14.6-4.2-21.6
			C120.8,302,116.6,295.9,111.9,290.7z M101.6,300.6c3.8,3.8,6.6,8.5,8.9,13.2c2.4,5.2,3.3,10.3,3.3,16c0,5.6-0.9,11.3-3.3,16
			c-1.9,5.2-5.2,9.4-8.5,13.2c-3.8,4.2-8.5,7.1-13.2,8.9c-5.2,2.4-10.8,3.3-16.5,3.3H52.7v-70c0-1.4,0.5-3.3,0.9-4.7
			c0.5-1.4,1.9-3.3,2.8-3.8c1.4-1.4,2.4-2.4,4.2-3.3c1.4-0.5,2.8-0.9,4.7-0.9h7.1c5.2,0,10.8,0.9,16,3.3
			C93.6,294,97.8,296.8,101.6,300.6z"/>
		<path class="st1" d="M106.7,315.1c-1.9-4.2-4.2-8.5-8-11.8c-3.3-3.3-7.5-6.1-11.8-8c-4.7-1.9-9.4-2.8-14.6-2.8h-7.1
			c-0.9,0-2.4,0-3.3,0.9c-1.4,0.5-1.9,1.4-3.3,2.4c-0.5,0.5-0.9,1.4-1.9,2.8c-0.5,0.9-0.9,2.4-0.9,3.3l0.5,64.4h16
			c5.2,0,9.9-0.5,14.6-2.8c4.2-1.9,8.5-4.2,11.8-7.5c3.8-3.3,6.1-7.1,8-11.8c1.9-4.7,3.3-9.4,3.3-14.6
			C110,324.5,108.6,319.8,106.7,315.1z M95.4,329.7c0,3.3-0.9,6.1-1.9,8.9c-0.9,2.8-2.8,5.2-4.7,7.1c-2.4,2.4-4.7,3.8-7.5,5.2
			c-2.8,1.4-5.6,1.9-8.9,1.9h-2.4v-42.3c0-0.9,0.5-1.4,0.9-2.4c0.9-0.9,1.4-0.9,2.8-0.9h0.5c2.8,0,5.6,0.9,8,1.9
			c2.8,1.4,5.2,3.3,7.1,5.2c1.9,1.9,3.3,4.2,4.2,7.1C94.5,324.1,95.4,326.9,95.4,329.7z"/>
		<path class="st1" d="M147.1,357.4c0,1.4,0.5,2.4,0.9,3.8c0,0.9,0.9,1.9,1.9,2.8c0.9,0.9,1.9,1.4,2.8,1.9c1.4,0.5,2.4,0.5,3.8,0.5
			h42.8l4.2-13.6h-39c-0.9,0-1.4-0.5-2.4-1.4c-0.5-0.5-0.9-0.9-0.9-2.4l0.5-3.3h20.2l4.7-14.1h-39.5V357.4z"/>
	</g>
	<g>
		<path class="st2" d="M668,424.2v-14.1H307c-3.3,0-6.6-1.4-8.9-3.3c-2.4-1.9-4.7-4.2-5.2-7.5h-6.6c-2.4,0-5.2,0.5-8,1.4l0.9,2.4
			c0.9,2.8,2.4,5.6,3.8,8.5c2.4,2.4,4.2,4.7,6.6,6.6s5.2,3.3,8,4.7c2.8,0.5,6.6,1.4,9.9,1.4H668z"/>
		<path class="st2" d="M286.3,385.2h2.4l-26.8-87.4c-0.5-1.4-1.4-2.8-2.8-3.8c-1.4-1.4-2.8-1.4-4.7-1.4c-1.9,0-3.3,0.5-4.7,1.4
			c-1.4,0.9-2.4,2.4-2.4,4.2l-26.8,87h1.9c5.2,0,9.9-0.9,14.1-4.2l13.2-44.7c0.5-1.4,0.9-1.9,1.9-2.4c0.9-0.9,1.9-1.4,2.8-1.4
			c0.9,0,1.9,0.5,2.8,1.4c0.9,0,1.4,0.9,1.9,2.4l13.6,45.1c1.9,0.9,4.2,1.9,6.6,2.8C281.6,385.2,283.9,385.2,286.3,385.2z"/>
		<path class="st2" d="M39,410.1v14.1h162.6c3.8,0,6.6-0.9,9.4-1.4c3.3-1.4,5.6-2.8,8.5-4.7c2.4-1.9,4.7-4.2,6.6-6.6
			c1.4-2.8,2.8-5.6,3.8-8.5l0.5-2.4c-2.4-0.9-5.2-1.4-8-1.4h-6.6c-0.5,3.3-2.4,6.1-4.7,7.5c-2.4,1.9-5.6,3.3-8.9,3.3H39z"/>
	</g>
</g>
</svg>
