<?xml version="1.0" encoding="utf-8"?>
<!-- Generator: Adobe Illustrator 24.0.1, SVG Export Plug-In . SVG Version: 6.00 Build 0)  -->
<svg version="1.1" id="Layer_1" xmlns="http://www.w3.org/2000/svg" xmlns:xlink="http://www.w3.org/1999/xlink" x="0px" y="0px"
	 viewBox="0 0 700 190" style="enable-background:new 0 0 700 190;" xml:space="preserve">
<style type="text/css">
	.st0{fill:#FFFFFF;}
	.st1{fill:#FCFCFC;}
	.st2{fill:#E85510;}
</style>
<g>
	<g>
		<path class="st0" d="M662.6,56.9c-2.8-7.1-7.1-12.7-12.3-18.4c-5.2-5.2-11.8-9.4-18.4-12.3c-7.1-3.3-14.2-4.2-22.2-4.2
			c-8,0-15.1,0.9-22.7,4.2c-6.6,2.8-12.3,7.1-17.9,12.3c-5.2,5.7-9,11.3-12.3,18.4c-3.3,7.1-4.7,14.6-4.7,22.2
			c0,7.6,1.4,15.1,4.7,22.7c3.3,6.6,7.1,12.3,12.3,17.9c5.7,5.2,11.3,9.4,17.9,12.3c7.6,2.8,14.6,4.7,22.7,4.7
			c8,0,15.1-1.9,22.2-4.7s13.2-7.1,18.4-12.3c5.2-5.7,9.4-11.3,12.3-17.9c2.8-7.6,4.3-15.1,4.3-22.7C666.9,71.6,665.5,64,662.6,56.9
			z M652.7,79.1c0,5.7-1.4,11.3-3.3,17c-1.9,4.7-5.7,9.4-9,13.2c-4.2,4.3-8.5,7.1-13.7,9.4c-5.7,1.9-11.3,3.3-17,3.3
			c-6.1,0-11.3-1.4-16.5-3.3c-5.7-2.4-9.9-5.2-13.7-9.4c-4.3-3.8-7.1-8.5-9.4-13.2c-2.4-5.7-3.3-11.3-3.3-17c0-5.7,0.9-11.3,3.3-17
			c2.4-4.7,5.2-9.4,9.4-13.2c3.8-3.8,8-7.1,13.7-9.4c5.2-2.4,10.4-3.3,16.5-3.3c5.7,0,11.3,0.9,17,3.3c5.2,2.4,9.4,5.7,13.7,9.4
			c3.3,3.8,7.1,8.5,9,13.2C651.3,67.8,652.7,73.5,652.7,79.1z"/>
		<path class="st0" d="M645.6,94.2c1.9-4.7,2.8-9.9,2.8-15.1c0-5.2-0.9-9.9-2.8-15.1c-2.4-4.2-4.7-9-8.5-12.3
			c-3.3-3.8-8-6.1-12.3-8.5c-5.2-1.4-9.9-2.8-15.1-2.8c-5.2,0-10.4,1.4-15.1,2.8c-4.7,2.4-8.5,4.7-12.3,8.5c-3.3,3.3-6.6,8-8,12.3
			c-2.4,5.2-3.3,9.9-3.3,15.1c0,5.2,1.4,10.4,3.3,15.1c1.4,4.2,4.7,9,8,12.3c3.8,3.8,7.6,6.6,12.3,8.5c4.7,1.9,9.9,2.8,15.1,2.8
			c5.2,0,9.9-0.9,15.1-2.8c4.3-1.9,9-4.7,12.3-8.5C640.9,103.2,643.3,98.5,645.6,94.2z M600.3,56.5c3.3-1.4,6.1-1.4,9.4-1.4
			c3.3,0,6.1,0,9.4,1.4c3.3,1.4,5.7,3.3,8,5.7c1.9,1.9,3.8,4.7,4.7,7.6c1.9,2.8,1.9,6.1,1.9,9.4c0,3.3,0,6.6-1.9,9.4
			c-0.9,2.8-2.8,5.7-4.7,7.6c-2.4,2.4-4.7,4.2-8,5.7c-3.3,1.4-6.1,1.9-9.4,1.9c-3.3,0-6.1-0.5-9.4-1.9c-3.3-1.4-5.7-3.3-8-5.7
			c-2.4-1.9-3.8-4.7-5.2-7.6c-0.9-2.8-1.9-6.1-1.9-9.4c0-3.3,0.9-6.6,1.9-9.4c1.4-2.8,2.8-5.7,5.2-7.6
			C594.7,59.8,597,57.9,600.3,56.5z"/>
		<path class="st0" d="M666.9,156.1v-14.6H559.2l-24.5-44.4c4.7-3.8,7.6-8.5,10.4-13.7c2.4-5.7,3.8-11.8,3.8-17.5
			c0-6.1-1.4-11.3-3.3-16.5c-1.9-5.2-5.2-9.4-9-13.2c-3.8-3.8-8.5-7.1-13.2-9.4c-5.2-2.4-10.9-3.3-17-3.3h-21.2
			c-4.3,0-7.6,0.9-10.9,2.4c-2.8,0.9-5.7,3.3-8.5,5.7c-2.4,2.4-4.2,5.7-5.7,8.5c-1.4,3.3-1.9,6.6-1.9,10.4v84.5h14.2v-84
			c0-1.9,0.5-3.8,0.9-5.2c0.5-1.4,1.4-2.4,2.8-3.8c1.4-1.4,2.4-2.4,4.3-2.8c0.9-0.5,2.8-0.9,4.7-0.9l21.2-0.5
			c4.2,0,7.6,0.9,11.3,2.8c3.3,1.4,6.1,2.8,8.5,5.7c2.8,2.8,4.7,5.2,6.1,9c1.4,3.3,2.4,7.1,2.4,10.9c0,5.7-1.9,10.4-4.7,15.1
			c-2.8,4.7-6.6,8-11.3,10.4c-0.9,0-1.9,0.9-2.4,1.4c0,0.5,0,0.9,0.5,1.4l34.5,61.8H666.9z"/>
		<path class="st0" d="M523.4,48.9c-2.4-2.4-4.7-3.8-7.6-4.7c-2.8-1.4-6.1-2.4-9.4-2.4h-21.2c-1.9,0-2.8,0.5-4.3,1.4
			c-0.5,0-1.9,0.9-2.8,1.9c-0.5,0.5-1.4,1.9-1.9,2.8c-0.5,1.4-0.5,2.4-0.5,3.8v83.1h14.2V59.8c0-0.9,0.5-1.4,0.9-2.4
			c0.5-0.9,1.4-0.9,2.4-0.9l13.2-0.5c1.9,0,2.8,0.5,4.2,0.9c0.9,0.5,1.9,1.4,2.8,2.4c0.5,0.5,1.4,1.4,1.9,2.8
			c0.5,0.9,0.9,2.4,0.9,3.8c0,0.9-0.5,2.4-0.9,3.3c-0.5,1.4-1.4,2.4-1.9,3.3c-1.9,1.9-4.3,2.8-7.1,2.8h-5.2c-3.3,0-5.7,1.9-7.1,4.7
			c-1.9,2.8-1.9,6.1,0,9.4l29.3,51.9H308.1c-0.5,0-0.9,0-1.9-0.5c0,0-0.5-0.9-0.9-1.4l-29.7-97.7c-0.5-2.4-1.9-4.7-3.8-7.1
			c-1.4-2.4-2.8-3.8-4.7-5.7c-2.4-1.4-4.7-2.8-7.1-3.8c-2.8-0.9-5.7-1.4-8.5-1.4c-2.4,0-5.7,0.5-8,1.4c-2.4,0.9-4.7,1.9-7.1,3.8
			c-2.4,1.4-3.8,3.3-5.7,5.7c-1.4,2.4-2.8,4.7-3.3,7.1l-29.7,97.7l-1.4,1.9h-1.9H35.3v14.6h163.3c2.4,0,4.7-0.5,7.1-2.4
			s3.3-3.3,3.8-6.1l31.6-102c0.5-2.4,1.4-4.2,3.8-5.7c1.9-1.4,4.3-2.4,6.6-2.4c2.8,0,4.7,0.9,6.6,2.4c1.9,1.4,3.3,3.3,4.2,5.7
			l30.7,102c2.4,5.7,6.1,8.5,10.9,8.5h243.6l-36.8-67c2.4,0,5.2-0.9,7.6-2.4c2.4-1.9,4.7-3.3,6.6-5.7c1.4-1.9,3.3-4.2,3.8-7.1
			c1.4-2.4,1.4-5.2,1.4-8c0-3.3,0-6.1-1.4-9.4C527.1,53.6,525.3,51.3,523.4,48.9z"/>
		<path class="st0" d="M352,23.4c-8,0-15.1,1.9-22.2,4.7c-6.1,2.8-12.3,6.6-17.5,11.8c-5.2,5.2-9,11.3-11.8,17.5
			c-2.8,7.1-4.2,14.2-4.2,21.7c0,7.6,1.4,14.6,4.2,21.7c2.8,6.6,6.6,12.3,11.8,17.5c5.2,5.2,11.3,9,17.5,11.8
			c7.1,2.8,14.2,4.7,22.2,4.7h34.5c-2.8-1.9-5.2-3.8-7.6-6.1c-1.9-2.8-3.8-5.2-5.2-8H352c-6.1,0-11.3-0.9-16.5-3.3
			c-4.7-1.9-9.4-4.7-13.2-9c-3.8-3.8-6.6-8-9-13.2c-2.4-4.7-2.8-10.4-2.8-16c0-5.7,0.5-10.9,2.8-16c2.4-4.7,5.2-9.4,9-13.2
			c3.8-3.8,8.5-6.6,13.2-9c5.7-1.9,10.9-3.3,16.5-3.3h18.9V23.4H352z"/>
		<path class="st0" d="M335.5,63.1c2.4-2.4,4.7-3.8,7.1-4.7c3.3-1.4,6.1-1.9,9.4-1.9h18.9V41.8H352c-5.7,0-10.4,0.9-15.1,2.8
			c-4.2,1.9-8.5,4.7-11.8,8c-3.3,3.3-6.1,7.6-7.6,11.8c-2.4,4.7-3.3,9.4-3.3,14.6c0,5.2,0.9,9.9,3.3,14.6c1.4,4.7,4.2,8.5,7.6,11.8
			c3.3,3.3,7.6,5.7,11.8,7.6c4.7,2.4,9.4,2.8,15.1,2.8h18.9v-13.7H352c-3.3,0-6.1-0.5-9.4-1.9c-2.4-1.4-4.7-2.8-7.1-5.2
			c-2.4-1.9-3.8-4.2-4.7-7.1c-1.4-2.8-2.4-5.7-2.4-9c0-2.8,0.9-5.7,2.4-9C331.7,67.8,333.1,65.4,335.5,63.1z"/>
		<path class="st0" d="M450.7,56.5V41.8h-48.1c-1.4,0-2.4,0.5-3.8,1.4c-0.9,0-1.9,0.9-2.8,1.9c-0.9,0.5-1.4,1.9-2.4,2.8
			c-0.5,1.4-0.5,2.4-0.5,3.8v25.5h40.6l4.3-11.8h-30.7v-5.7c0-0.9,0.5-1.4,0.9-2.4c0.5-0.9,1.9-0.9,2.4-0.9H450.7z"/>
		<path class="st0" d="M450.7,37.6V23.4h-48.1c-3.8,0-7.1,0.9-10.4,2.4c-3.3,0.9-6.1,3.3-8.5,5.7s-4.7,5.7-5.7,8.5
			c-1.4,3.3-2.4,6.6-2.4,10.4v57.6c0,3.3,0.9,7.1,2.4,10.4c0.9,2.8,3.3,6.1,5.7,8.5c2.4,2.4,5.2,4.2,8.5,5.7
			c3.3,1.4,6.6,2.4,10.4,2.4h48.1v-14.2h-48.1c-1.9,0-3.3-0.5-5.2-0.9c-1.4-0.9-2.8-1.9-4.2-2.8c-0.9-1.4-1.9-2.8-2.4-4.2
			c-0.9-1.4-0.9-3.3-0.9-4.7V50.8c0-1.9,0-3.8,0.9-5.2c0.5-1.4,1.4-2.4,2.4-3.8c1.4-1.4,2.8-2.4,4.2-2.8c1.9-0.5,3.3-0.9,5.2-0.9
			L450.7,37.6z"/>
		<path class="st0" d="M408.2,100.8c-0.9-0.5-0.9-0.9-0.9-2.4v-3.3h20.3l4.7-14.2h-39.2v26c0,1.4,0,2.4,0.5,3.8
			c0.9,0.9,1.4,1.9,2.4,2.8c0.9,0.9,1.9,1.4,2.8,1.9c1.4,0.5,2.4,0.5,3.8,0.5h48.1v-13.7h-40.1C409.6,102.2,408.7,101.8,408.2,100.8
			z"/>
		<path class="st1" d="M284,142.8h0.5h0.9l0.5-0.5v-0.5v-0.5h-0.5H284c-4.2,0-8-0.9-11.8-2.4c-3.8-1.9-6.6-3.8-9.9-6.6
			c-2.8-2.4-5.2-5.2-7.1-9c-1.4-3.3-2.8-7.6-3.3-11.3v-0.5l-0.5-0.5c0,0-0.5,0-0.9,0.5c0,0,0,0,0,0.5c-0.5,3.8-1.4,8-3.3,11.3
			c-1.9,3.8-4.2,6.6-7.1,9c-2.8,2.8-6.1,4.7-9.9,6.6c-3.8,1.4-7.6,2.4-11.8,2.4h-0.9h-0.9v0.5v0.5c0.5,0.5,0.9,0.5,0.9,0.5h0.9
			c4.2,0,8,0.9,11.8,2.4c3.8,1.4,7.1,3.3,9.9,6.1c2.8,2.4,5.2,5.7,7.1,9c1.9,3.8,2.8,7.6,3.3,11.8v0.5c0,0,0.5,0,0.9,0l0,0l0.5-0.5
			c0.5-4.3,1.9-8,3.3-11.8c1.9-3.3,4.2-6.6,7.1-9c3.3-2.8,6.1-4.7,9.9-6.1C276,143.8,279.8,142.8,284,142.8z"/>
		<path class="st0" d="M153.3,23.4c-3.8,0-7.1,0.9-10.4,2.4c-3.3,0.9-6.1,3.3-8.5,5.7s-4.2,5.7-6.1,8.5c-0.9,3.3-1.9,6.6-1.9,10.4
			v57.6c0,3.3,0.9,7.1,1.9,10.4c1.9,2.8,3.8,6.1,6.1,8.5c2.4,2.4,5.2,4.2,8.5,5.7c3.3,1.4,6.6,2.4,10.4,2.4h36.8l4.7-14.2h-41.5
			c-1.9,0-3.3-0.5-4.7-0.9c-1.9-0.9-2.8-1.9-4.2-2.8c-1.4-1.4-2.4-2.8-2.8-4.2c-0.5-1.4-0.9-3.3-0.9-4.7V50.8c0-1.9,0.5-3.8,0.9-5.2
			c0.5-1.4,1.4-2.4,2.8-3.8c1.4-1.4,2.4-2.4,4.2-2.8c1.4-0.5,2.8-0.9,4.7-0.9h52.9l4.2-14.6H153.3z"/>
		<path class="st0" d="M153.3,41.8c-1.4,0-2.4,0.5-3.8,1.4c-0.9,0-1.9,0.9-2.8,1.9c-0.9,0.5-1.9,1.9-1.9,2.8
			c-0.5,1.4-0.9,2.4-0.9,3.8v25.5h40.6l3.8-11.8h-29.7v-5.7c0-0.9,0-1.4,0.5-2.4c0.9-0.9,1.9-0.9,2.4-0.9h39.2l4.2-14.6H153.3z"/>
		<path class="st0" d="M108.4,39.9c-5.2-5.2-11.3-9-17.9-11.8c-7.1-2.8-14.2-4.7-21.7-4.7h-7.1c-3.3,0-7.1,0.9-9.9,2.4
			c-3.8,0.9-6.6,3.3-9,5.7c-2.4,2.4-4.2,5.7-5.7,8.5c-1.4,3.3-1.9,6.6-1.9,10.4v84.5h33.5c7.6,0,14.6-1.9,21.7-4.7
			c6.6-2.8,12.7-6.6,17.9-11.8c4.7-5.2,9-10.9,11.8-17.5c2.8-7.1,4.2-14.2,4.2-21.7c0-7.6-1.4-14.6-4.2-21.7
			C117.4,51.3,113.2,45.1,108.4,39.9z M98.1,49.8c3.8,3.8,6.6,8.5,9,13.2c2.4,5.2,3.3,10.4,3.3,16c0,5.7-0.9,11.3-3.3,16
			c-1.9,5.2-5.2,9.4-8.5,13.2c-3.8,4.3-8.5,7.1-13.2,9c-5.2,2.4-10.9,3.3-16.5,3.3H49V50.3c0-1.4,0.5-3.3,0.9-4.7
			c0.5-1.4,1.9-3.3,2.8-3.8c1.4-1.4,2.4-2.4,4.2-3.3c1.4-0.5,2.8-0.9,4.7-0.9h7.1c5.2,0,10.9,0.9,16,3.3
			C90,43.2,94.3,46.1,98.1,49.8z"/>
		<path class="st0" d="M103.3,64.5c-1.9-4.2-4.2-8.5-8-11.8c-3.3-3.3-7.6-6.1-11.8-8c-4.7-1.9-9.4-2.8-14.6-2.8h-7.1
			c-0.9,0-2.4,0-3.3,0.9c-1.4,0.5-1.9,1.4-3.3,2.4c-0.5,0.5-0.9,1.4-1.9,2.8c-0.5,0.9-0.9,2.4-0.9,3.3l0.5,64.7h16
			c5.2,0,9.9-0.5,14.6-2.8c4.2-1.9,8.5-4.3,11.8-7.6c3.8-3.3,6.1-7.1,8-11.8c1.9-4.7,3.3-9.4,3.3-14.6
			C106.6,73.9,105.1,69.2,103.3,64.5z M91.9,79.1c0,3.3-0.9,6.1-1.9,9c-0.9,2.8-2.8,5.2-4.7,7.1c-2.4,2.4-4.7,3.8-7.6,5.2
			c-2.8,1.4-5.7,1.9-9,1.9h-2.4V59.8c0-0.9,0.5-1.4,0.9-2.4c0.9-0.9,1.4-0.9,2.8-0.9h0.5c2.8,0,5.7,0.9,8,1.9
			c2.8,1.4,5.2,3.3,7.1,5.2c1.9,1.9,3.3,4.2,4.2,7.1C91,73.5,91.9,76.3,91.9,79.1z"/>
		<path class="st0" d="M143.9,107c0,1.4,0.5,2.4,0.9,3.8c0,0.9,0.9,1.9,1.9,2.8c0.9,0.9,1.9,1.4,2.8,1.9c1.4,0.5,2.4,0.5,3.8,0.5h43
			l4.2-13.7h-39.2c-0.9,0-1.4-0.5-2.4-1.4c-0.5-0.5-0.9-0.9-0.9-2.4l0.5-3.3h20.3l4.7-14.2h-39.7V107z"/>
	</g>
	<g>
		<path class="st2" d="M666.9,174v-14.2H304.3c-3.3,0-6.6-1.4-9-3.3c-2.4-1.9-4.7-4.2-5.2-7.6h-6.6c-2.4,0-5.2,0.5-8,1.4l0.9,2.4
			c0.9,2.8,2.4,5.7,3.8,8.5c2.4,2.4,4.3,4.7,6.6,6.6s5.2,3.3,8,4.7c2.8,0.5,6.6,1.4,9.9,1.4H666.9z"/>
		<path class="st2" d="M283.6,134.8h2.4L259,47c-0.5-1.4-1.4-2.8-2.8-3.8c-1.4-1.4-2.8-1.4-4.7-1.4c-1.9,0-3.3,0.5-4.7,1.4
			c-1.4,0.9-2.4,2.4-2.4,4.2l-26.9,87.3h1.9c5.2,0,9.9-0.9,14.2-4.3l13.2-44.8c0.5-1.4,0.9-1.9,1.9-2.4c0.9-0.9,1.9-1.4,2.8-1.4
			c0.9,0,1.9,0.5,2.8,1.4c0.9,0,1.4,0.9,1.9,2.4l13.7,45.3c1.9,0.9,4.2,1.9,6.6,2.8C278.9,134.8,281.2,134.8,283.6,134.8z"/>
		<path class="st2" d="M35.3,159.8V174h163.3c3.8,0,6.6-0.9,9.4-1.4c3.3-1.4,5.7-2.8,8.5-4.7c2.4-1.9,4.7-4.3,6.6-6.6
			c1.4-2.8,2.8-5.7,3.8-8.5l0.5-2.4c-2.4-0.9-5.2-1.4-8-1.4h-6.6c-0.5,3.3-2.4,6.1-4.7,7.6c-2.4,1.9-5.7,3.3-9,3.3H35.3z"/>
	</g>
</g>
</svg>
